<svg xmlns="http://www.w3.org/2000/svg" preserveAspectRatio="xMidYMid" width="46" height="46" viewBox="0 0 46 46"><defs><style>.cls-2 { fill: #e8663c; }</style></defs><path d="M45.988 25.932v-5.885l-4.915-.393c-.178-.97-.43-1.91-.752-2.82l4.06-2.796-2.944-5.096-4.456 2.118c-.633-.74-1.32-1.43-2.06-2.06l2.117-4.457L31.94 1.6l-2.796 4.058c-.91-.323-1.852-.574-2.82-.752L25.93-.01h-5.884l-.393 4.916c-.97.178-1.91.43-2.82.752L14.035 1.6 8.94 4.544 11.058 9c-.74.63-1.43 1.32-2.062 2.06L4.54 8.943 1.6 14.038l4.056 2.796c-.323.91-.574 1.852-.752 2.82l-4.916.394v5.884l4.916.394c.178.968.43 1.91.752 2.82L1.6 31.943l2.942 5.094 4.454-2.116c.633.74 1.322 1.43 2.063 2.062l-2.12 4.456 5.097 2.94 2.796-4.055c.91.322 1.85.574 2.82.752l.393 4.915h5.885l.394-4.915c.97-.178 1.91-.43 2.82-.753l2.797 4.057 5.097-2.942-2.118-4.457c.74-.63 1.428-1.32 2.06-2.06l4.456 2.117 2.943-5.095-4.06-2.796c.324-.91.575-1.852.753-2.82l4.915-.394zm-23 8.558c-6.35 0-11.5-5.15-11.5-11.5 0-6.352 5.15-11.5 11.5-11.5 6.352 0 11.5 5.148 11.5 11.5 0 6.35-5.148 11.5-11.5 11.5z" id="path-1" class="cls-2" fill-rule="evenodd"/></svg>