<svg xmlns="http://www.w3.org/2000/svg" preserveAspectRatio="xMidYMid" width="37" height="38" viewBox="0 0 37 38"><defs><style>.cls-2 { fill: #fefefe; opacity: 0.7; }</style></defs><path d="M0 0h37.063v37.03H0V0zm16.063 9v6.938c-2.292 0-4.646.093-6.938.093 0 1.46-.062 3.512-.062 4.97h6.968c0 2.29.033 4.678.033 6.97 1.458 0 3.51-.064 4.968-.064 0-2.29-.03-4.677-.03-6.968h7c0-1.458.03-3.48.03-4.938-2.29 0-4.738.03-7.03.03 0-2.29-.03-4.738-.03-7.03h-4.907z" id="path-1" class="cls-2" fill-rule="evenodd"/></svg>