<svg xmlns="http://www.w3.org/2000/svg" preserveAspectRatio="xMidYMid" width="49" height="40" viewBox="0 0 49 40"><defs><style>.cls-2 { fill: #e8663c; }</style></defs><path d="M48.16 8.396L40.425.664c-.9-.9-2.357-.9-3.256 0L19.048 18.786 11.63 11.37c-.898-.9-2.356-.9-3.255 0L.643 19.1c-.9.898-.9 2.356 0 3.255L9.385 31.1c.08.117.172.228.274.33l7.732 7.733c.43.432 1.017.674 1.627.674.61 0 1.196-.242 1.627-.674l27.512-27.51c.43-.433.673-1.018.673-1.63 0-.61-.243-1.195-.674-1.627z" id="path-1" class="cls-2" fill-rule="evenodd"/></svg>